<svg width="697" height="600" viewBox="0 0 697 600" fill="none" xmlns="http://www.w3.org/2000/svg">
<path d="M593.412 248.091C605.587 260.86 619.17 262.897 634.161 254.204C627.87 244.122 626.372 233.156 628.049 221.604H598.845C600.139 231.755 599.791 241.207 593.412 248.091Z" fill="#E1AA76"/>
<path d="M641.631 582.231L657.252 574.082L664.043 487.83V442.327L628.048 441.648L638.235 487.151L641.631 582.231Z" fill="#E1AA76"/>
<path d="M596.352 582.231L580.732 574.082L573.941 487.83V442.327L609.935 441.648L599.748 487.151L596.352 582.231Z" fill="#E1AA76"/>
<path d="M572.358 451.835L610.391 448.44L616.503 413.803L623.974 447.761L665.402 445.044C666.307 428.542 664.008 411.558 658.61 394.108L567.604 392.07L572.358 451.835Z" fill="#2F2E41"/>
<path d="M532.828 321.756L487.08 286.528C486.605 286.163 486.083 285.863 485.528 285.637L478.878 282.931C473.538 280.759 463.365 273.531 468.326 266.089C472.326 260.089 487.637 270.838 489.521 274.82C490.116 276.073 491.093 277.106 492.31 277.77L501.607 282.865C501.833 282.989 502.067 283.1 502.306 283.196L537.702 297.543C538.683 297.941 539.745 298.099 540.799 298.004C541.854 297.908 542.87 297.563 543.764 296.996L550.181 292.927C551.095 292.348 552.135 292 553.213 291.914C554.29 291.828 555.373 292.005 556.367 292.431C557.36 292.857 558.235 293.519 558.916 294.359C559.596 295.199 560.061 296.193 560.272 297.253L562.392 307.958C562.698 309.499 562.448 311.098 561.687 312.473C560.926 313.848 559.704 314.909 558.235 315.468L539.258 322.702C538.195 323.107 537.045 323.233 535.92 323.067C534.794 322.902 533.73 322.451 532.828 321.756V321.756Z" fill="#E1AA76"/>
<path d="M541.326 296.089C553.993 292.693 552.663 310.388 562.326 319.089L581.326 304.089L570.321 250.808C567.368 251.651 564.652 253.17 562.388 255.244C560.123 257.318 558.371 259.89 557.272 262.757L541.326 296.089Z" fill="#31BBED"/>
<path d="M564.888 395.466H660.648C645.15 353.703 646.659 310.749 659.854 266.978C660.076 266.251 660.037 265.47 659.744 264.769C659.451 264.068 658.923 263.491 658.251 263.138L630.765 248.77C619.976 255.791 608.38 253.633 596.129 244.016L566.246 252.166C574.381 301.023 574.612 348.877 564.888 395.466Z" fill="#31BBED"/>
<path d="M588.832 598.183L548.926 599.874C547.188 599.948 545.484 599.376 544.143 598.269C542.802 597.162 541.917 595.598 541.66 593.878V593.878C541.4 592.141 541.798 590.369 542.777 588.91C543.756 587.452 545.244 586.411 546.95 585.993L553.719 584.334L580.322 568.914C584.264 572.995 589.691 576.446 596.326 579.385L596.404 590.227C596.418 592.275 595.637 594.25 594.225 595.734C592.813 597.218 590.879 598.096 588.832 598.183V598.183Z" fill="#2F2E41"/>
<path d="M648.82 597.577L688.727 599.268C690.465 599.342 692.168 598.77 693.509 597.663C694.851 596.556 695.735 594.992 695.993 593.272V593.272C696.253 591.535 695.854 589.763 694.875 588.305C693.897 586.846 692.409 585.805 690.702 585.387L683.934 583.728L657.33 568.308C653.388 572.389 647.961 575.84 641.326 578.779L641.249 589.621C641.234 591.669 642.015 593.644 643.427 595.128C644.84 596.612 646.773 597.49 648.82 597.577V597.577Z" fill="#2F2E41"/>
<path d="M610.391 233.829C622.393 233.829 632.123 224.099 632.123 212.096C632.123 200.094 622.393 190.364 610.391 190.364C598.388 190.364 588.658 200.094 588.658 212.096C588.658 224.099 598.388 233.829 610.391 233.829Z" fill="#E1AA76"/>
<path d="M644.348 388.675L637.168 402.635C636.535 403.867 636.169 405.22 636.095 406.603C636.021 407.986 636.241 409.37 636.74 410.662C637.239 411.954 638.006 413.126 638.991 414.101C639.975 415.076 641.155 415.832 642.452 416.318V416.318C643.825 416.833 645.295 417.034 646.756 416.906C648.217 416.778 649.63 416.324 650.893 415.578C652.155 414.832 653.234 413.813 654.051 412.596C654.868 411.378 655.402 409.993 655.614 408.542L658.61 387.996L669.476 336.38L668.797 310.573H647.065C654.477 329.768 650.8 358.081 644.348 388.675Z" fill="#E1AA76"/>
<path d="M643.669 313.289H672.872L668.633 281.262C668.058 276.919 666.405 272.788 663.824 269.248C661.242 265.708 657.816 262.871 653.856 260.995L643.669 313.289Z" fill="#31BBED"/>
<path d="M633.496 200.126C633.93 197.223 633.747 194.261 632.96 191.433C632.173 188.605 630.799 185.974 628.928 183.713C625.22 179.325 619.005 175.734 608.693 177.428C586.196 181.124 579.709 199.853 581.913 204.563C584.117 209.273 590.873 220.192 590.873 220.192C590.873 220.192 585.914 209.384 591.296 207.184C596.677 204.984 617.503 196.317 624.772 200.221C626.829 201.254 628.576 202.814 629.835 204.742C631.094 206.67 631.819 208.897 631.937 211.197L633.496 200.126Z" fill="#2F2E41"/>
<path d="M233.965 199.088L228.769 201.859C222.783 189.474 214.853 178.237 205.313 168.622C158.46 121.288 83.6972 122.836 38.6543 172.072C-6.38857 221.309 -4.91593 299.874 41.9371 347.209C50.8545 356.236 61.0705 363.729 72.2089 369.412L69.6669 374.922C52.012 365.913 36.6503 352.619 24.851 336.139C13.0518 319.658 5.15366 300.463 1.80923 280.14C-1.5352 259.817 -0.229928 238.95 5.61719 219.262C11.4643 199.574 21.6854 181.631 35.4361 166.915C49.1867 152.199 66.0722 141.132 84.6973 134.63C103.322 128.127 123.153 126.375 142.549 129.519C161.946 132.662 180.353 140.611 196.248 152.708C212.144 164.805 225.072 180.703 233.965 199.088V199.088Z" fill="#E6E6E6"/>
<path d="M58.1558 313.013C50.5122 321.368 46.3401 332.572 46.5573 344.16C46.7745 355.748 51.3632 366.771 59.3139 374.803C67.2647 382.835 77.9262 387.22 88.9531 386.992C99.98 386.763 110.469 381.941 118.113 373.586L125.272 365.76L65.3149 305.188L58.1558 313.013Z" fill="#E6E6E6"/>
<path d="M61.2977 300.743C59.5963 302.607 58.668 305.104 58.7164 307.686C58.7648 310.269 59.786 312.726 61.5559 314.518L116.548 370.075C118.321 371.865 120.697 372.843 123.156 372.792C125.614 372.741 127.952 371.666 129.656 369.803C131.36 367.941 132.29 365.443 132.242 362.86C132.193 360.277 131.17 357.819 129.398 356.029L74.4057 300.472C72.6319 298.684 70.2557 297.708 67.7983 297.759C65.341 297.81 63.0031 298.883 61.2977 300.743Z" fill="#535461"/>
<path d="M226.234 255.398L233.393 247.572C241.037 239.217 245.209 228.013 244.992 216.425C244.775 204.837 240.186 193.815 232.235 185.782C228.298 181.805 223.655 178.682 218.569 176.59C213.484 174.499 208.056 173.481 202.596 173.594C191.569 173.822 181.08 178.644 173.437 186.999L166.277 194.825L226.234 255.398Z" fill="#E6E6E6"/>
<path d="M161.893 190.782C160.192 192.646 159.263 195.143 159.312 197.725C159.36 200.308 160.381 202.765 162.151 204.557L217.144 260.114C218.916 261.902 221.292 262.878 223.75 262.826C226.207 262.774 228.544 261.699 230.247 259.838C231.95 257.976 232.88 255.48 232.832 252.898C232.785 250.315 231.764 247.859 229.993 246.068L175.001 190.511C173.227 188.723 170.851 187.747 168.394 187.798C165.936 187.849 163.599 188.922 161.893 190.782V190.782Z" fill="#535461"/>
<path d="M206.594 315.194V310.318C206.594 310.318 228.734 298.352 246.723 310.318V314.75L206.594 315.194Z" fill="#535461"/>
<path d="M408.16 315.194V310.318C408.16 310.318 430.3 298.352 448.289 310.318V314.75L408.16 315.194Z" fill="#535461"/>
<path d="M273.014 314.75H251.335C251.335 314.75 245.8 308.546 227.35 308.989C208.9 309.432 205.21 314.75 205.21 314.75C205.21 314.75 186.991 326.495 182.84 341.121C182.84 341.121 160.469 405.607 160.008 456.132C159.546 506.657 179.841 513.748 190.45 515.077C201.059 516.407 219.97 514.634 238.42 469.871L246.262 443.722C246.262 443.722 247.645 428.21 264.25 437.96C280.855 447.711 295.615 432.642 295.615 432.642H357.884C357.884 432.642 378.64 445.052 397.551 435.301C397.551 435.301 404.932 425.994 411.85 457.461C411.85 457.461 433.068 522.169 465.816 515.521C498.565 508.873 494.875 454.802 494.875 454.802C494.875 454.802 490.493 372.145 472.505 342.894C472.505 342.894 455.208 312.534 443.676 311.205C443.676 311.205 418.769 306.773 409.083 310.762L403.548 315.194L273.014 314.75Z" fill="#E6E6E6"/>
<path d="M222.738 396.743C244.9 396.743 262.867 379.479 262.867 358.184C262.867 336.889 244.9 319.626 222.738 319.626C200.575 319.626 182.609 336.889 182.609 358.184C182.609 379.479 200.575 396.743 222.738 396.743Z" fill="#535461"/>
<path d="M432.145 396.743C454.308 396.743 472.274 379.479 472.274 358.184C472.274 336.889 454.308 319.626 432.145 319.626C409.983 319.626 392.016 336.889 392.016 358.184C392.016 379.479 409.983 396.743 432.145 396.743Z" fill="#535461"/>
<path d="M229.73 349.586L224.38 354.133C223.927 354.517 223.344 354.728 222.74 354.728C222.136 354.728 221.553 354.517 221.1 354.133L215.741 349.586C215.478 349.364 215.268 349.091 215.124 348.786C214.979 348.48 214.903 348.149 214.901 347.813V335.302C214.902 334.67 215.164 334.065 215.63 333.618C216.095 333.172 216.725 332.922 217.383 332.922H228.107C228.764 332.921 229.394 333.17 229.86 333.616C230.325 334.061 230.587 334.666 230.588 335.297V347.804C230.585 348.143 230.507 348.477 230.359 348.784C230.211 349.091 229.997 349.365 229.73 349.586Z" fill="#E6E6E6"/>
<path d="M229.73 366.778L224.38 362.235C223.927 361.852 223.344 361.64 222.74 361.64C222.136 361.64 221.553 361.852 221.1 362.235L215.741 366.782C215.478 367.004 215.268 367.277 215.124 367.582C214.979 367.888 214.903 368.219 214.901 368.555V381.053C214.9 381.685 215.16 382.29 215.623 382.738C216.087 383.185 216.717 383.437 217.373 383.438H228.107C228.764 383.439 229.394 383.189 229.86 382.744C230.325 382.298 230.587 381.693 230.588 381.062V368.56C230.585 368.221 230.507 367.887 230.359 367.58C230.211 367.272 229.997 366.999 229.73 366.778V366.778Z" fill="#E6E6E6"/>
<path d="M213.794 364.912L218.527 359.762C218.925 359.327 219.146 358.766 219.146 358.186C219.146 357.606 218.925 357.046 218.527 356.611L213.794 351.461C213.563 351.209 213.279 351.007 212.961 350.868C212.643 350.729 212.298 350.656 211.949 350.654H198.942C198.285 350.655 197.655 350.907 197.19 351.354C196.726 351.801 196.465 352.407 196.465 353.039V363.343C196.464 363.974 196.724 364.58 197.187 365.027C197.651 365.474 198.28 365.726 198.937 365.727H211.954C212.303 365.724 212.648 365.649 212.965 365.509C213.282 365.368 213.565 365.165 213.794 364.912V364.912Z" fill="#E6E6E6"/>
<path d="M231.686 364.912L226.963 359.758C226.563 359.323 226.342 358.762 226.342 358.182C226.342 357.602 226.563 357.041 226.963 356.606L231.695 351.456C231.926 351.205 232.21 351.002 232.528 350.863C232.846 350.724 233.191 350.652 233.54 350.65H246.547C247.204 350.649 247.835 350.898 248.3 351.344C248.766 351.789 249.028 352.394 249.029 353.025V363.339C249.03 363.97 248.77 364.576 248.307 365.023C247.843 365.47 247.214 365.722 246.557 365.723H233.545C233.193 365.723 232.845 365.65 232.524 365.51C232.204 365.37 231.918 365.166 231.686 364.912V364.912Z" fill="#E6E6E6"/>
<path d="M277.165 428.21C293.214 428.21 306.224 415.709 306.224 400.288C306.224 384.868 293.214 372.367 277.165 372.367C261.117 372.367 248.107 384.868 248.107 400.288C248.107 415.709 261.117 428.21 277.165 428.21Z" fill="#535461"/>
<path d="M377.718 428.21C393.766 428.21 406.777 415.709 406.777 400.288C406.777 384.868 393.766 372.367 377.718 372.367C361.669 372.367 348.659 384.868 348.659 400.288C348.659 415.709 361.669 428.21 377.718 428.21Z" fill="#535461"/>
<path d="M277.165 418.903C287.864 418.903 296.538 410.569 296.538 400.288C296.538 390.008 287.864 381.674 277.165 381.674C266.466 381.674 257.793 390.008 257.793 400.288C257.793 410.569 266.466 418.903 277.165 418.903Z" fill="#E6E6E6"/>
<path d="M277.165 413.141C274.52 413.141 271.934 412.387 269.734 410.975C267.534 409.563 265.82 407.555 264.807 405.207C263.795 402.858 263.53 400.274 264.046 397.781C264.562 395.288 265.836 392.997 267.707 391.2C269.578 389.402 271.961 388.178 274.556 387.682C277.15 387.186 279.84 387.441 282.284 388.414C284.728 389.387 286.817 391.034 288.287 393.148C289.757 395.261 290.542 397.746 290.542 400.288C290.538 403.696 289.127 406.963 286.619 409.372C284.112 411.782 280.712 413.137 277.165 413.141V413.141ZM277.165 388.322C274.702 388.322 272.294 389.024 270.246 390.339C268.198 391.653 266.602 393.522 265.66 395.709C264.717 397.895 264.47 400.302 264.951 402.623C265.431 404.944 266.617 407.076 268.359 408.75C270.101 410.423 272.32 411.563 274.736 412.025C277.152 412.486 279.656 412.25 281.931 411.344C284.207 410.438 286.152 408.904 287.52 406.936C288.889 404.969 289.619 402.655 289.619 400.288C289.615 397.116 288.302 394.074 285.967 391.831C283.633 389.587 280.467 388.325 277.165 388.322V388.322Z" fill="#535461"/>
<path d="M377.718 418.903C388.417 418.903 397.09 410.569 397.09 400.288C397.09 390.008 388.417 381.674 377.718 381.674C367.019 381.674 358.345 390.008 358.345 400.288C358.345 410.569 367.019 418.903 377.718 418.903Z" fill="#E6E6E6"/>
<path d="M377.718 413.141C375.072 413.141 372.486 412.387 370.286 410.975C368.087 409.563 366.372 407.555 365.36 405.207C364.347 402.858 364.082 400.274 364.599 397.781C365.115 395.288 366.389 392.997 368.259 391.2C370.13 389.402 372.514 388.178 375.108 387.682C377.703 387.186 380.393 387.441 382.837 388.414C385.281 389.387 387.37 391.034 388.84 393.148C390.31 395.261 391.094 397.746 391.094 400.288C391.09 403.696 389.679 406.963 387.172 409.372C384.664 411.782 381.264 413.137 377.718 413.141ZM377.718 388.322C375.255 388.322 372.847 389.024 370.799 390.339C368.751 391.653 367.155 393.522 366.212 395.709C365.269 397.895 365.023 400.302 365.503 402.623C365.984 404.944 367.17 407.076 368.912 408.75C370.653 410.423 372.872 411.563 375.288 412.025C377.704 412.486 380.208 412.25 382.484 411.344C384.759 410.438 386.704 408.904 388.073 406.936C389.441 404.969 390.172 402.655 390.172 400.288C390.168 397.116 388.855 394.074 386.52 391.831C384.185 389.587 381.02 388.325 377.718 388.322V388.322Z" fill="#535461"/>
<path d="M328.364 411.368C332.949 411.368 336.667 407.797 336.667 403.391C336.667 398.985 332.949 395.413 328.364 395.413C323.779 395.413 320.062 398.985 320.062 403.391C320.062 407.797 323.779 411.368 328.364 411.368Z" fill="#535461"/>
<path d="M315.675 378.505C316.676 378.505 317.488 377.725 317.488 376.763C317.488 375.801 316.676 375.021 315.675 375.021C314.674 375.021 313.862 375.801 313.862 376.763C313.862 377.725 314.674 378.505 315.675 378.505Z" fill="#535461"/>
<path d="M322.465 378.505C323.466 378.505 324.277 377.725 324.277 376.763C324.277 375.801 323.466 375.021 322.465 375.021C321.463 375.021 320.652 375.801 320.652 376.763C320.652 377.725 321.463 378.505 322.465 378.505Z" fill="#535461"/>
<path d="M321.561 386.771C322.562 386.771 323.373 385.991 323.373 385.029C323.373 384.067 322.562 383.287 321.561 383.287C320.559 383.287 319.748 384.067 319.748 385.029C319.748 385.991 320.559 386.771 321.561 386.771Z" fill="#535461"/>
<path d="M327.903 386.992C328.922 386.992 329.748 386.199 329.748 385.219C329.748 384.24 328.922 383.447 327.903 383.447C326.884 383.447 326.058 384.24 326.058 385.219C326.058 386.199 326.884 386.992 327.903 386.992Z" fill="#535461"/>
<path d="M334.236 386.771C335.237 386.771 336.048 385.991 336.048 385.029C336.048 384.067 335.237 383.287 334.236 383.287C333.235 383.287 332.423 384.067 332.423 385.029C332.423 385.991 333.235 386.771 334.236 386.771Z" fill="#535461"/>
<path d="M318.844 382.857C319.845 382.857 320.657 382.077 320.657 381.115C320.657 380.153 319.845 379.374 318.844 379.374C317.843 379.374 317.031 380.153 317.031 381.115C317.031 382.077 317.843 382.857 318.844 382.857Z" fill="#535461"/>
<path d="M324.674 383.003C325.693 383.003 326.519 382.21 326.519 381.231C326.519 380.252 325.693 379.458 324.674 379.458C323.655 379.458 322.829 380.252 322.829 381.231C322.829 382.21 323.655 383.003 324.674 383.003Z" fill="#535461"/>
<path d="M330.67 383.003C331.689 383.003 332.515 382.21 332.515 381.231C332.515 380.252 331.689 379.458 330.67 379.458C329.651 379.458 328.825 380.252 328.825 381.231C328.825 382.21 329.651 383.003 330.67 383.003Z" fill="#535461"/>
<path d="M336.952 382.857C337.954 382.857 338.765 382.077 338.765 381.115C338.765 380.153 337.954 379.374 336.952 379.374C335.951 379.374 335.14 380.153 335.14 381.115C335.14 382.077 335.951 382.857 336.952 382.857Z" fill="#535461"/>
<path d="M327.903 378.571C328.922 378.571 329.748 377.778 329.748 376.799C329.748 375.82 328.922 375.026 327.903 375.026C326.884 375.026 326.058 375.82 326.058 376.799C326.058 377.778 326.884 378.571 327.903 378.571Z" fill="#535461"/>
<path d="M334.36 378.571C335.379 378.571 336.205 377.778 336.205 376.799C336.205 375.82 335.379 375.026 334.36 375.026C333.341 375.026 332.515 375.82 332.515 376.799C332.515 377.778 333.341 378.571 334.36 378.571Z" fill="#535461"/>
<path d="M339.669 378.505C340.67 378.505 341.482 377.725 341.482 376.763C341.482 375.801 340.67 375.021 339.669 375.021C338.668 375.021 337.857 375.801 337.857 376.763C337.857 377.725 338.668 378.505 339.669 378.505Z" fill="#535461"/>
<path d="M259.407 318.528C258.554 318.529 257.736 318.855 257.132 319.434C256.529 320.014 256.19 320.8 256.189 321.62V330.927C256.19 331.747 256.529 332.533 257.132 333.113C257.736 333.693 258.554 334.019 259.407 334.02H261.713C262.567 334.019 263.385 333.693 263.988 333.113C264.591 332.533 264.931 331.747 264.931 330.927V321.62C264.931 320.8 264.591 320.014 263.988 319.434C263.385 318.855 262.567 318.529 261.713 318.528H259.407Z" fill="#535461"/>
<path d="M394.092 318.528C393.239 318.529 392.421 318.855 391.817 319.434C391.214 320.014 390.875 320.8 390.874 321.62V330.927C390.875 331.747 391.214 332.533 391.817 333.113C392.421 333.693 393.239 334.019 394.092 334.02H396.398C397.252 334.019 398.07 333.693 398.673 333.113C399.276 332.533 399.616 331.747 399.616 330.927V321.62C399.616 320.8 399.276 320.014 398.673 319.434C398.07 318.855 397.252 318.529 396.398 318.528H394.092Z" fill="#535461"/>
<path d="M432.607 345.331C438.72 345.331 443.677 340.569 443.677 334.694C443.677 328.82 438.72 324.058 432.607 324.058C426.493 324.058 421.536 328.82 421.536 334.694C421.536 340.569 426.493 345.331 432.607 345.331Z" fill="#E6E6E6"/>
<path d="M409.083 367.935C415.197 367.935 420.153 363.172 420.153 357.298C420.153 351.423 415.197 346.661 409.083 346.661C402.969 346.661 398.013 351.423 398.013 357.298C398.013 363.172 402.969 367.935 409.083 367.935Z" fill="#E6E6E6"/>
<path d="M457.053 366.605C463.167 366.605 468.123 361.843 468.123 355.968C468.123 350.094 463.167 345.331 457.053 345.331C450.939 345.331 445.983 350.094 445.983 355.968C445.983 361.843 450.939 366.605 457.053 366.605Z" fill="#E6E6E6"/>
<path d="M434.452 390.095C440.565 390.095 445.522 385.332 445.522 379.458C445.522 373.583 440.565 368.821 434.452 368.821C428.338 368.821 423.382 373.583 423.382 379.458C423.382 385.332 428.338 390.095 434.452 390.095Z" fill="#E6E6E6"/>
<path d="M280.279 312.323C277.805 312.326 275.434 313.271 273.685 314.952C271.935 316.632 270.952 318.911 270.949 321.288V360.954C270.952 363.331 271.935 365.609 273.685 367.29C275.434 368.971 277.805 369.916 280.279 369.919H375.065C377.539 369.916 379.91 368.971 381.659 367.29C383.408 365.609 384.392 363.331 384.395 360.954V321.288C384.392 318.911 383.408 316.632 381.659 314.952C379.91 313.271 377.539 312.326 375.065 312.323H280.279Z" fill="#535461"/>
<path d="M440.127 339.57H425.115L432.362 327.632L440.127 339.57ZM426.722 338.683H438.462L432.389 329.347L426.722 338.683Z" fill="#31BBED"/>
<path d="M415.31 362.616H402.856V351.979H415.31V362.616ZM403.778 361.73H414.387V352.866H403.778V361.73Z" fill="#31BBED"/>
<path d="M457.053 362.616C455.684 362.616 454.347 362.226 453.209 361.496C452.071 360.765 451.184 359.727 450.661 358.512C450.137 357.297 450 355.961 450.267 354.671C450.534 353.382 451.193 352.197 452.161 351.267C453.128 350.338 454.361 349.704 455.703 349.448C457.045 349.191 458.436 349.323 459.7 349.826C460.965 350.329 462.045 351.181 462.805 352.275C463.566 353.368 463.972 354.653 463.972 355.968C463.97 357.731 463.24 359.42 461.943 360.667C460.646 361.913 458.887 362.614 457.053 362.616ZM457.053 350.206C455.867 350.206 454.708 350.544 453.722 351.177C452.735 351.811 451.967 352.71 451.513 353.763C451.059 354.816 450.94 355.975 451.172 357.092C451.403 358.21 451.974 359.236 452.813 360.042C453.651 360.848 454.72 361.397 455.883 361.619C457.046 361.841 458.252 361.727 459.348 361.291C460.443 360.855 461.38 360.117 462.039 359.169C462.697 358.222 463.049 357.108 463.049 355.968C463.047 354.441 462.415 352.976 461.291 351.896C460.167 350.816 458.643 350.208 457.053 350.206Z" fill="#31BBED"/>
<path d="M429.473 374.158L428.821 374.785L439.199 384.757L439.851 384.13L429.473 374.158Z" fill="#31BBED"/>
<path d="M439.436 374.151L428.829 383.903L429.467 384.543L440.074 374.791L439.436 374.151Z" fill="#31BBED"/>
<path d="M548.5 150C544.248 150 540.091 148.739 536.555 146.377C533.02 144.014 530.264 140.656 528.637 136.728C527.009 132.799 526.584 128.476 527.413 124.306C528.243 120.135 530.29 116.304 533.297 113.297C536.304 110.29 540.135 108.243 544.305 107.413C548.476 106.584 552.799 107.009 556.728 108.637C560.656 110.264 564.014 113.02 566.376 116.555C568.739 120.091 570 124.248 570 128.5C569.994 134.2 567.727 139.665 563.696 143.696C559.665 147.726 554.2 149.994 548.5 150ZM548.5 109.866C544.815 109.866 541.212 110.959 538.148 113.007C535.084 115.054 532.695 117.964 531.285 121.369C529.875 124.774 529.506 128.521 530.225 132.135C530.944 135.75 532.718 139.07 535.324 141.676C537.93 144.282 541.25 146.056 544.865 146.775C548.479 147.494 552.226 147.125 555.631 145.715C559.036 144.305 561.946 141.916 563.993 138.852C566.041 135.788 567.133 132.185 567.133 128.5C567.128 123.56 565.163 118.823 561.67 115.33C558.176 111.837 553.44 109.872 548.5 109.866Z" fill="#31BBED"/>
<path d="M530.563 27.5467L527.555 25L485.992 71.0884L488.999 73.635L530.563 27.5467Z" fill="#31BBED"/>
<path d="M533.618 69.118L486.679 27.5774L484 30.4176L530.94 71.9582L533.618 69.118Z" fill="#31BBED"/>
<path d="M417.155 85.5325L360 57.1521L388.379 0L445.534 28.3805L417.155 85.5325ZM366.599 54.4915L415.287 78.6675L438.936 31.0409L390.248 6.86485L366.599 54.4915Z" fill="#31BBED"/>
<path d="M384.04 154.091L282.884 204.454L293.834 104.05L384.04 154.091ZM290.895 193.415L370.009 154.026L299.457 114.887L290.895 193.415Z" fill="#31BBED"/>
</svg>
