<svg width="432" height="443" viewBox="0 0 432 443" fill="none" xmlns="http://www.w3.org/2000/svg">
<path d="M222.656 411.528L269.114 342.44L222.751 418.96L222.848 426.734C219.456 426.76 216.098 426.704 212.772 426.565L215.076 326.634L215.013 325.863L215.098 325.714L215.318 316.271L164.442 242.404L215.258 309.204L215.439 311.2L217.179 235.699L173.235 159.115L217.304 222.435L216.844 66.0159L216.845 65.4952L216.86 66.0072L219.777 189.287L259.827 139.211L219.909 199.907L220.783 267.441L257.636 201.53L220.918 277.37L221.405 314.922L275 223.109L221.568 328.023L222.656 411.528Z" fill="#E6E6E6"/>
<path d="M379.005 413.704L425.463 344.616L379.101 421.136L379.197 428.91C375.806 428.936 372.447 428.88 369.121 428.741L371.426 328.81L371.362 328.039L371.448 327.89L371.668 318.448L320.791 244.581L371.608 311.38L371.788 313.376L373.529 237.875L329.585 161.292L373.654 224.611L373.194 68.192L373.195 67.6714L373.21 68.1834L376.127 191.463L416.177 141.387L376.258 202.083L377.132 269.617L413.986 203.707L377.268 279.546L377.754 317.099L431.35 225.286L377.917 330.199L379.005 413.704Z" fill="#E6E6E6"/>
<path d="M44.9879 133.907C44.9879 133.907 38.7024 87.8139 28.2266 100.385C17.7508 112.956 28.2266 131.812 28.2266 131.812L36.6073 142.288L44.9879 136.003V133.907Z" fill="#E1AA76"/>
<path d="M70.1298 148.574C70.1298 148.574 49.1782 125.527 44.9879 129.717C40.7976 133.907 28.2266 136.003 30.3218 144.383C32.4169 152.764 76.4153 180.001 76.4153 180.001L70.1298 148.574Z" fill="#31BBED"/>
<path opacity="0.1" d="M70.1298 148.574C70.1298 148.574 49.1782 125.527 44.9879 129.717C40.7976 133.907 28.2266 136.003 30.3218 144.383C32.4169 152.764 76.4153 180.001 76.4153 180.001L70.1298 148.574Z" fill="black"/>
<path d="M189.554 146.478V163.24C189.554 163.24 191.649 200.952 179.078 198.857C166.507 196.762 172.793 165.335 172.793 165.335L174.888 146.478L189.554 146.478Z" fill="#E1AA76"/>
<path d="M183.268 267.998C183.268 267.998 202.125 297.33 208.41 299.425C214.696 301.52 248.218 320.377 252.409 339.233L281.741 376.946L267.075 395.802C267.075 395.802 200.03 324.567 181.173 318.281C162.317 311.996 143.46 280.569 143.46 280.569L183.268 267.998Z" fill="#E1AA76"/>
<path d="M34.5121 219.809C34.5121 219.809 -5.29592 226.094 0.989537 251.236C7.275 276.378 68.0346 328.757 68.0346 328.757L70.1299 341.328L93.1766 345.518L103.652 335.043L101.557 328.757C101.557 328.757 76.4153 305.71 74.3201 297.33C72.2249 288.949 49.1782 255.427 38.7024 253.332L53.3685 244.951L34.5121 219.809Z" fill="#E1AA76"/>
<path d="M275.455 376.946C275.455 376.946 267.075 364.375 279.646 366.47C292.217 368.565 300.597 370.66 300.597 379.041C300.597 387.422 290.121 446.086 277.55 441.896C264.979 437.705 275.455 418.849 275.455 418.849C275.455 418.849 269.17 402.088 264.98 399.993C260.789 397.898 260.789 387.422 264.98 387.422C269.17 387.422 277.55 381.136 275.455 376.946Z" fill="#2F2E41"/>
<path d="M97.3669 330.852C97.3669 330.852 97.3669 320.377 105.747 330.852C114.128 341.328 118.318 349.709 109.938 355.994C101.557 362.28 72.225 376.946 72.225 376.946C72.225 376.946 40.7976 383.231 44.9879 368.565C44.9879 368.565 65.9395 358.089 65.9395 349.709C65.9395 341.328 65.9395 326.662 72.225 330.852C78.5104 335.043 97.3669 337.138 97.3669 330.852Z" fill="#2F2E41"/>
<path d="M137.175 173.715C137.175 173.715 166.507 177.906 164.412 219.809C164.412 219.809 202.125 257.522 191.649 270.093C181.173 282.664 158.126 305.71 149.746 299.425C141.365 293.139 116.223 244.951 116.223 244.951C116.223 244.951 57.5588 265.902 47.083 255.427C36.6072 244.951 26.1314 219.809 26.1314 219.809L78.5105 192.572L137.175 173.715Z" fill="#2F2E41"/>
<path d="M55.4637 54.2914C69.3492 54.2914 80.6056 43.035 80.6056 29.1495C80.6056 15.264 69.3492 4.00757 55.4637 4.00757C41.5782 4.00757 30.3217 15.264 30.3217 29.1495C30.3217 43.035 41.5782 54.2914 55.4637 54.2914Z" fill="#E1AA76"/>
<path d="M74.3201 31.2446C74.3201 31.2446 88.9862 54.2914 93.1765 56.3865C97.3668 58.4817 63.8443 79.4333 63.8443 79.4333C63.8443 79.4333 63.8443 52.1962 53.3685 45.9107L74.3201 31.2446Z" fill="#E1AA76"/>
<path d="M76.4152 54.2914C76.4152 54.2914 109.938 43.8156 116.223 60.5769C122.509 77.3381 137.175 108.766 135.08 129.717C132.985 150.669 128.794 146.478 135.08 152.764C141.365 159.049 145.555 154.859 143.46 163.24C141.365 171.62 139.27 171.62 141.365 175.811C143.46 180.001 116.223 194.667 93.1765 196.762L70.1298 198.857C70.1298 198.857 70.1298 161.144 65.9395 152.764C61.7492 144.383 53.3685 127.622 53.3685 121.336V104.706C53.3685 93.6363 56.2572 82.7587 61.7491 73.1478V73.1478C61.7491 73.1478 74.3201 54.2914 76.4152 54.2914Z" fill="#31BBED"/>
<path d="M101.557 62.672C101.557 62.672 179.078 68.9575 187.459 89.9091C195.839 110.861 200.03 152.764 191.649 152.764C183.268 152.764 172.793 156.954 170.697 152.764C168.602 148.574 160.222 106.67 158.126 106.67C156.031 106.67 93.1765 100.385 93.1765 100.385C93.1765 100.385 65.9394 66.8623 101.557 62.672Z" fill="#31BBED"/>
<path d="M54.4535 22.9165C54.4535 22.9165 47.7815 11.3219 39.4417 21.3928C31.1019 31.4638 17.5348 12.9566 19.6175 9.00757C21.7003 5.05853 29.0552 9.18513 41.6596 5.06473C54.2641 0.94433 78.5443 -7.44973 82.6106 19.932C86.677 47.3137 76.9923 44.4432 76.9923 44.4432C76.9923 44.4432 72.5532 20.18 68.5411 27.1494L64.529 34.1189L61.0488 34.9754L54.4535 22.9165Z" fill="#2F2E41"/>
</svg>
