<svg width="697" height="512" viewBox="0 0 697 512" fill="none" xmlns="http://www.w3.org/2000/svg">
<g clip-path="url(#clip0_3_48)">
<path d="M575.795 411.411H26.4866C11.882 411.411 0 399.53 0 384.924V26.4866C0 11.882 11.882 0 26.4866 0H575.795C590.4 0 602.282 11.882 602.282 26.4866V384.924C602.282 399.53 590.4 411.411 575.795 411.411V411.411Z" fill="white"/>
<path d="M575.795 411.411H26.4866C11.882 411.411 0 399.53 0 384.924V26.4866C0 11.882 11.882 0 26.4866 0H575.795C590.4 0 602.282 11.882 602.282 26.4866V384.924C602.282 399.53 590.4 411.411 575.795 411.411V411.411ZM26.4866 2.30318C13.1305 2.30318 2.30318 13.1305 2.30318 26.4866V384.924C2.30318 398.281 13.1305 409.108 26.4866 409.108H575.795C589.151 409.108 599.979 398.281 599.979 384.924V156.332C599.979 71.2643 531.018 2.30318 445.95 2.30318H26.4866V2.30318Z" fill="#F2F2F2"/>
<path d="M172.27 55.6505H132.519C129.763 55.6505 127.519 53.4073 127.519 50.6505C127.519 47.8936 129.763 45.6505 132.519 45.6505H172.27C175.027 45.6505 177.269 47.8936 177.269 50.6505C177.269 53.4073 175.027 55.6505 172.27 55.6505V55.6505Z" fill="#E6E6E6"/>
<path d="M384.051 46.1505H344.301C341.816 46.1505 339.801 48.1652 339.801 50.6505C339.801 53.1357 341.816 55.1505 344.301 55.1505H384.051C386.536 55.1505 388.551 53.1357 388.551 50.6505C388.551 48.1652 386.536 46.1505 384.051 46.1505Z" fill="#31BBED"/>
<path d="M327.051 55.6505H287.301C284.544 55.6505 282.301 53.4073 282.301 50.6505C282.301 47.8936 284.544 45.6505 287.301 45.6505H327.051C329.808 45.6505 332.051 47.8936 332.051 50.6505C332.051 53.4073 329.808 55.6505 327.051 55.6505Z" fill="#E6E6E6"/>
<path d="M423.788 363.45H72.4791C57.8745 363.45 45.9925 351.569 45.9925 336.964V128.526C45.9925 113.921 57.8745 102.039 72.4791 102.039H423.788C438.392 102.039 450.274 113.921 450.274 128.526V336.964C450.274 351.569 438.392 363.45 423.788 363.45V363.45Z" fill="#F2F2F2"/>
<path d="M539.667 217.862L525.379 201.738L506.409 222.212L465.447 204.228C464.71 200.366 461.49 197.302 457.38 196.951C452.427 196.528 448.07 200.2 447.647 205.153C447.224 210.105 450.896 214.463 455.849 214.886C457.115 214.994 458.34 214.831 459.472 214.451L510.141 242.745L539.667 217.862V217.862Z" fill="#E1AA76"/>
<path d="M551.891 195.909C550.782 194.343 550.403 192.119 550.03 190.281C549.707 188.69 548.579 187.344 546.958 186.953C546.281 186.79 545.845 186.368 545.178 186.175C544.479 185.972 543.766 185.802 543.062 185.613C541.321 185.146 539.398 184.648 537.607 185.154C535.302 185.805 533.506 187.503 531.788 189.048C531.156 189.616 530.831 190.402 530.252 190.994C529.991 191.261 529.687 191.385 529.454 191.695C529.107 192.157 529.034 192.753 528.68 193.201C528.38 193.581 527.961 193.787 527.716 194.215C527.462 194.659 527.281 195.05 526.955 195.462C526.324 196.26 525.533 196.794 524.827 197.504C524.097 198.239 523.39 199.037 522.672 199.788C521.853 200.646 521.36 201.729 520.569 202.577C519.395 203.836 518.39 205.312 517.248 206.63C516.513 207.477 515.85 208.232 514.931 208.882C514.489 209.195 514.234 209.702 513.795 209.981C513.341 210.268 512.582 210.523 512.071 210.756C511.494 211.02 510.397 211.035 510.077 211.673C509.778 212.269 510.238 212.759 510.651 213.097C510.934 213.328 511.695 213.64 511.431 214.101C511.27 214.382 510.04 214.544 509.724 214.656C508.545 215.072 507.738 216.162 506.776 216.948C505.705 217.823 506.206 218.039 507.003 218.853C507.287 219.141 507.346 219.397 507.728 219.585C508.083 219.759 508.602 219.799 508.987 219.901C509.837 220.128 510.686 220.358 511.535 220.586L517.115 222.084L522.801 223.611C524.095 223.959 525.39 224.303 526.683 224.653C527.328 224.828 527.97 225.048 528.63 225.151C529.204 225.24 530.148 225.473 530.72 225.393C531.571 225.275 532.968 224.244 533.526 223.648C534.144 222.988 534.578 222.259 535.242 221.621C536.661 220.255 537.629 218.589 538.515 216.831C539.038 215.794 539.726 214.864 540.266 213.841C540.727 212.969 541.044 212.029 541.517 211.162C542.364 209.607 543.129 208.02 543.934 206.441C544.396 205.534 544.873 204.639 545.346 203.741C545.869 202.747 546.547 201.892 547.158 200.952C547.671 200.162 548.263 199.265 548.952 198.642C549.83 197.849 550.777 197.002 551.544 196.109" fill="#31BBED"/>
<path d="M535.991 493.287L527.469 495.882L513.401 464.244L525.98 460.413L535.991 493.287Z" fill="#E1AA76"/>
<path d="M539 502.086L512.791 510.068L512.69 509.737C510.975 504.103 514.151 498.145 519.784 496.429L519.785 496.428L523.466 491.339L533.504 492.25L535.792 491.553L539 502.086V502.086Z" fill="#2F2E41"/>
<path d="M573.92 500.774L565.01 500.773L560.772 466.409L573.921 466.41L573.92 500.774Z" fill="#E1AA76"/>
<path d="M574.233 510.068L546.836 510.067V509.721C546.837 503.831 551.611 499.057 557.5 499.057H557.501L562.505 495.26L571.842 499.058L574.234 499.058L574.233 510.068V510.068Z" fill="#2F2E41"/>
<path d="M595.188 291.38L593.488 293.081C584.451 293.081 574.859 294.03 565.917 292.889C561.238 292.292 556.543 291.352 551.843 291.38C548.306 291.402 544.768 291.38 541.231 291.38C538.951 291.38 536.663 291.328 534.384 291.373C530.227 291.457 527.883 294.625 526.354 298.136C524.681 301.976 521.495 304.825 519.696 308.599C517.899 312.365 516.083 315.892 513.976 319.526C507.245 331.132 501.666 343.155 496.331 355.373C494.845 358.777 493.137 362.04 491.468 365.342C490.453 367.35 489.769 368.371 489.726 370.636C489.676 373.267 489.824 375.52 490.582 378.055C491.455 380.975 492.765 383.767 493.59 386.665C494.139 388.594 494.086 390.331 494.842 392.191C495.335 393.401 496.051 394.692 496.354 395.962C496.999 398.673 497.43 401.666 497.393 404.483C497.353 407.596 498.468 409.972 499.327 412.946C500.359 416.517 499.724 419.781 501.432 423.214C502.14 424.639 502.344 425.639 502.688 427.19C503.19 429.455 504.367 431.414 505.079 433.575C507.607 441.247 507.377 449.481 507.578 457.423C507.663 460.788 508.446 463.99 508.448 467.431C508.451 470.207 508.054 473.227 508.833 475.894C509.64 478.653 510.663 482.995 513.939 482.756C517.991 482.461 522.293 481.542 526.329 480.829C527.844 480.561 530.799 480.052 532.101 479.211C534.547 477.63 533.24 476.278 533.478 474.003C533.557 473.24 534.562 471.847 534.501 471.025C534.418 469.934 533.475 469.26 533.252 468.265C532.917 466.771 533.123 466.734 533.319 465.478C533.699 463.032 534.169 463.902 532.468 461.692C530.672 459.359 531.409 455.702 531.409 452.81V442.823C531.409 440.365 531.411 437.906 531.409 435.448C531.406 431.79 530.519 428.348 530.562 424.73C530.609 420.698 530.733 416.598 530.599 412.571C530.518 410.163 529.249 408.455 528.814 406.164C528.44 404.191 528.104 402.261 527.581 400.254C527.032 398.148 526.507 396.302 525.67 394.322C524.604 391.8 524.784 389.147 523.758 386.627C522.855 384.407 522.957 382.545 522.915 380.215C522.882 378.383 521.981 376.703 521.974 374.903C521.959 370.742 527.675 364.906 530.454 362.036C534.094 358.276 538.099 354.813 541.611 350.935C543.146 349.239 544.702 347.845 546.323 346.254C547.828 344.776 548.801 342.873 550.307 341.364C552.339 339.328 554.095 337.01 555.881 334.75C557.283 332.978 558.194 330.518 559.766 328.933C560.297 330.563 559.543 332.424 559.467 334.106C559.345 336.81 559.1 339.278 558.63 341.955C557.855 346.364 557.086 350.722 556.496 355.15C555.547 362.263 554.376 369.337 554.37 376.467C554.358 388.779 554.37 401.091 554.37 413.403C554.37 424.098 554.147 434.823 554.35 445.515C554.409 448.638 555.345 451.522 555.253 454.716C555.526 455.628 555.404 456.465 554.886 457.228C554.494 457.482 554.103 457.736 553.711 457.989C552.648 459.627 552.371 460.637 552.803 462.542C553.28 464.644 555.576 466.832 555.284 469.113C555.132 470.295 554.388 470.93 554.422 472.13C554.47 473.813 555.07 475.082 554.833 476.887C556.564 478.505 558.695 477.324 560.553 476.952C562.05 476.652 563.522 476.941 565.009 476.695C566.748 476.407 567.887 475.884 569.685 475.907C571.1 475.925 572.517 475.928 573.932 475.913C578.038 475.868 579.309 473.904 579.878 469.896C580.19 467.702 581.717 466.971 582.307 464.924C582.958 462.665 582.478 459.479 582.008 457.273C581.377 454.317 581.945 451.488 581.626 448.514C581.264 445.126 579.938 441.925 579.862 438.498C579.734 432.709 579.126 426.116 579.838 420.387C579.995 419.122 580.619 418.054 580.765 416.805C580.888 415.753 580.645 414.876 580.921 413.834C581.89 410.17 582.211 406.192 583.177 402.422C584.023 399.123 584.147 395.958 584.775 392.618C585.239 390.15 585.726 387.35 585.878 384.84C585.976 383.224 585.647 381.66 586.004 380.054C586.396 378.289 587.357 376.774 587.576 374.952C587.77 373.334 587.415 371.64 587.503 370.01C587.592 368.375 588.297 367.017 588.409 365.403C588.594 362.743 588.81 360.321 589.449 357.687C591.616 348.763 593.432 339.679 596.049 330.883C598.154 323.809 599.44 316.625 599.44 309.238C599.44 305.843 601.066 290.116 595.189 291.38L595.188 291.38Z" fill="#2F2E41"/>
<path d="M493.244 159.37H141.934C127.334 159.37 115.454 171.25 115.454 185.85V394.29C115.454 408.9 127.334 420.78 141.934 420.78H493.244C507.854 420.78 519.734 408.9 519.734 394.29V185.85C519.734 171.25 507.854 159.37 493.244 159.37V159.37Z" fill="white"/>
<path d="M493.244 420.779H141.936C127.331 420.779 115.449 408.897 115.449 394.292V185.854C115.449 171.25 127.331 159.368 141.936 159.368H493.244C507.849 159.368 519.731 171.25 519.731 185.854V394.292C519.731 408.897 507.849 420.779 493.244 420.779V420.779ZM141.936 161.671C128.58 161.671 117.752 172.498 117.752 185.854V394.292C117.752 407.648 128.58 418.475 141.936 418.475H493.244C506.601 418.475 517.428 407.648 517.428 394.292V315.7C517.428 230.632 448.467 161.671 363.399 161.671H141.936V161.671Z" fill="#3F3D56"/>
<path d="M577.818 167.223C575.417 167.223 572.373 167.647 570.008 167.097C567.767 166.575 565.429 166.069 563.078 166.089C561.335 166.104 558.779 165.593 557.147 166.086C555.223 166.666 554.273 169.404 553.569 171.076C552.817 172.859 551.731 174.15 550.593 175.729C548.651 178.421 548.227 183.299 544.383 184.158C541.872 184.719 548.593 184.231 545.992 184.231C543.624 184.231 540.57 183.846 538.455 185.182C535.876 186.811 535.741 190.796 534.997 193.396C534.53 195.029 533.566 196.812 532.842 198.375C531.931 200.343 531.426 202.246 530.259 204.073C529.164 205.788 528.666 207.901 527.724 209.742C527.343 210.488 526.888 211.253 526.548 212.023C525.971 213.329 526.113 214.686 525.627 216.008C525.387 216.66 525.101 216.836 524.874 217.367C524.407 218.459 524.266 219.351 524.158 220.56C523.996 222.377 524.812 223.329 525.317 225.038C525.911 227.049 526.936 228.777 527.609 230.748C528.359 232.945 527.987 235.06 528.548 237.244C529.341 240.337 531.528 243.372 531.722 246.595C531.836 248.489 532.299 250.36 532.272 252.262C532.241 254.533 532.261 256.805 532.259 259.076C532.258 260.607 532.412 262.028 531.848 263.475C531.202 265.131 531.189 266.198 531.139 267.994C531.067 270.539 529.674 272.823 529.395 275.38C529.291 276.341 529.492 277.362 529.438 278.33C529.351 279.891 528.823 281.273 528.845 282.876C528.898 286.768 528.757 288.872 532.275 291.117C534.457 292.509 536.795 292.973 539.191 293.803C542.13 294.822 545.753 294.215 548.858 294.215C552.792 294.215 556.742 294.1 560.674 294.172C567.129 294.291 573.41 295.914 579.879 295.916C580.862 295.916 581.846 295.907 582.829 295.914C584.296 295.924 585.317 295.577 586.698 295.319C587.722 295.129 589.04 295.35 590.086 295.349C591.631 295.347 592.581 295.117 594.027 294.766C595.368 294.44 596.979 294.773 598.048 293.59C599.381 292.115 599.36 290.136 599.693 288.39C600.047 286.528 600.906 285.396 600.869 283.401C600.844 282.052 600.621 280.376 600.829 279.034C601.002 277.91 599.713 276.908 599.942 275.811C600.184 274.652 599.991 273.303 599.992 272.107C599.992 269.877 600.433 266.995 599.877 264.843C599.479 263.305 600.606 223.902 601.107 222.782C601.633 221.605 601.657 220.335 601.918 219.097C602.7 215.384 601.308 211.04 602.763 207.488C603.869 204.79 603.33 201.329 603.33 198.404C603.33 196.236 603.682 193.768 603.371 191.632C602.996 189.062 601.033 189.104 598.892 188.327C597.258 187.734 596.091 187.602 594.384 187.63C592.616 187.659 591.025 187.067 589.241 187.052C588.095 187.043 586.743 187.296 585.627 186.978C583.809 186.459 582.032 184.027 581.18 182.404C580.264 180.659 580.372 178.814 579.962 176.989C579.683 175.749 579.68 174.766 579.547 173.501C579.359 171.718 578.375 168.607 577.251 167.223" fill="#31BBED"/>
<path d="M591.285 225.69L577.521 209.116L557.904 228.971L517.54 209.684C516.927 205.8 513.807 202.634 509.71 202.152C504.773 201.571 500.3 205.102 499.719 210.038C499.138 214.974 502.668 219.447 507.605 220.029C508.867 220.177 510.097 220.054 511.24 219.71L560.976 249.614L591.285 225.69V225.69Z" fill="#E1AA76"/>
<path d="M594.162 187.2C595.953 187.887 598.202 187.704 600.075 187.611C601.697 187.53 603.28 188.29 604.06 189.764C604.385 190.38 604.902 190.698 605.254 191.296C605.624 191.924 605.964 192.572 606.321 193.207C607.205 194.779 608.163 196.519 608.116 198.38C608.056 200.774 606.854 202.934 605.782 204.981C605.388 205.734 604.707 206.243 604.276 206.951C604.082 207.27 604.038 207.595 603.794 207.898C603.433 208.347 602.873 208.566 602.527 209.019C602.234 209.404 602.137 209.861 601.783 210.204C601.415 210.56 601.082 210.833 600.763 211.25C600.146 212.059 599.824 212.957 599.311 213.817C598.78 214.707 598.181 215.588 597.63 216.47C597.002 217.476 596.074 218.221 595.449 219.197C594.519 220.647 593.338 221.986 592.343 223.418C591.704 224.339 591.647 225.638 591.244 226.69C591.05 227.195 590.112 227.098 589.951 227.592C589.784 228.103 589.726 228.902 589.626 229.455C589.513 230.079 589.77 231.146 589.231 231.614C588.727 232.051 588.138 231.726 587.709 231.41C587.415 231.193 586.924 230.532 586.543 230.902C586.31 231.128 586.457 232.359 586.427 232.693C586.316 233.938 585.459 234.991 584.936 236.116C584.353 237.371 584.02 236.939 583.034 236.367C582.684 236.164 582.422 236.17 582.145 235.846C581.889 235.546 581.722 235.053 581.527 234.705C581.098 233.937 580.665 233.172 580.234 232.405L577.402 227.369L574.516 222.238C573.859 221.07 573.205 219.9 572.546 218.734C572.217 218.152 571.845 217.585 571.582 216.97C571.354 216.437 570.895 215.58 570.831 215.006C570.735 214.151 571.388 212.543 571.827 211.855C572.314 211.093 572.913 210.492 573.367 209.691C574.339 207.979 575.715 206.629 577.199 205.335C578.074 204.572 578.805 203.675 579.662 202.899C580.394 202.237 581.225 201.697 581.949 201.024C583.246 199.819 584.595 198.685 585.925 197.515C586.69 196.843 587.439 196.159 588.193 195.479C589.026 194.726 589.686 193.857 590.447 193.033C591.085 192.341 591.808 191.545 592.24 190.723C592.792 189.676 593.378 188.549 594.054 187.586" fill="#31BBED"/>
<path d="M569.291 163.559C580.679 163.559 589.911 154.327 589.911 142.94C589.911 131.552 580.679 122.32 569.291 122.32C557.904 122.32 548.672 131.552 548.672 142.94C548.672 154.327 557.904 163.559 569.291 163.559Z" fill="#E1AA76"/>
<path d="M589.819 157.026C587.57 159.839 585.65 161.488 582.551 162.666C582.501 162.238 582.473 161.802 582.48 161.367C582.052 161.952 581.63 162.537 581.195 163.123C579.267 163.715 576.912 164.179 573.863 164.651L572.364 160.074C572.128 158.004 573.499 156.098 575.027 154.677C576.555 153.264 578.339 152.05 579.389 150.251C580.438 148.452 580.424 145.768 578.675 144.64C576.954 143.519 574.591 144.44 572.649 143.776C570.408 143.012 569.358 140.27 569.73 137.929C570.101 135.587 571.521 133.567 572.899 131.646C569.687 133.046 564.825 133.224 560.092 132.389C560.263 130.911 559.906 129.362 559.014 128.169C558.928 129.533 558.293 130.847 557.293 131.768C552.745 130.547 548.676 128.377 546.82 125.449C547.641 125.235 548.462 125.014 549.283 124.8C549.047 123.115 548.812 121.437 548.576 119.76C549.576 120.252 550.582 120.752 551.589 121.245C551.782 120.673 552.074 120.174 552.446 119.731C553.295 119.46 554.173 119.296 555.066 119.231C555.351 119.217 555.644 119.203 555.937 119.203C556.365 119.203 556.808 119.217 557.236 119.267C556.701 118.782 556.158 118.303 555.623 117.811C555.558 117.753 555.501 117.696 555.437 117.639C556.415 117.218 557.472 116.897 558.471 116.618C562.84 115.405 567.366 114.184 571.85 114.876C574.714 115.319 577.563 116.768 579.422 118.928C581.081 120.856 583.424 121.999 585.917 122.504C587.115 122.746 588.276 123.282 589.241 124.029C588.634 124.421 587.991 124.764 587.32 125.035C588.591 125.342 589.855 125.649 591.126 125.963C592.311 127.527 593.117 129.39 593.731 131.261C596.573 139.878 595.488 149.944 589.819 157.026V157.026Z" fill="#2F2E41"/>
<path d="M624.799 492.546C626.865 492.676 628.006 490.109 626.443 488.613L626.288 487.995C626.308 487.945 626.329 487.896 626.35 487.846C628.439 482.865 635.52 482.899 637.591 487.888C639.43 492.316 641.77 496.752 642.347 501.434C642.605 503.501 642.489 505.607 642.03 507.635C646.338 498.224 648.606 487.948 648.606 477.614C648.606 475.017 648.463 472.421 648.173 469.831C647.934 467.712 647.604 465.607 647.178 463.521C644.872 452.243 639.88 441.502 632.678 432.531C629.216 430.638 626.329 427.68 624.585 424.134C623.959 422.856 623.468 421.48 623.235 420.078C623.629 420.13 624.721 414.13 624.424 413.761C624.973 412.928 625.955 412.514 626.555 411.701C629.537 407.658 633.646 408.364 635.791 413.858C640.373 416.171 640.418 420.006 637.606 423.695C635.817 426.042 635.572 429.218 634.002 431.73C634.164 431.937 634.331 432.137 634.493 432.344C637.454 436.142 640.015 440.224 642.174 444.512C641.564 439.746 642.465 434.004 644 430.303C645.749 426.085 649.025 422.534 651.911 418.888C655.377 414.508 662.484 416.42 663.095 421.971C663.101 422.025 663.106 422.078 663.112 422.132C662.684 422.374 662.264 422.631 661.854 422.902C659.514 424.449 660.323 428.076 663.095 428.504L663.157 428.514C663.002 430.057 662.738 431.588 662.35 433.093C666.052 447.409 658.06 452.623 646.649 452.857C646.397 452.986 646.151 453.115 645.899 453.238C647.055 456.493 647.979 459.833 648.664 463.217C649.277 466.207 649.704 469.23 649.943 472.266C650.24 476.096 650.214 479.945 649.891 483.769L649.91 483.633C650.73 479.422 653.017 475.489 656.337 472.763C661.282 468.701 668.27 467.205 673.605 463.939C676.173 462.367 679.465 464.398 679.016 467.376L678.994 467.519C678.2 467.842 677.425 468.216 676.676 468.636C676.247 468.878 675.827 469.135 675.417 469.406C673.078 470.953 673.886 474.58 676.658 475.008L676.721 475.017C676.766 475.024 676.805 475.03 676.85 475.037C675.487 478.273 673.588 481.276 671.212 483.866C668.897 496.363 658.956 497.549 648.321 493.91H648.315C647.152 498.973 645.454 503.921 643.271 508.636H625.25C625.186 508.436 625.128 508.229 625.069 508.029C626.736 508.132 628.415 508.035 630.056 507.732C628.719 506.091 627.382 504.437 626.045 502.797C626.012 502.765 625.987 502.732 625.961 502.7C625.283 501.86 624.598 501.027 623.92 500.188L623.919 500.187C623.877 497.609 624.186 495.04 624.798 492.547L624.799 492.546V492.546Z" fill="#F2F2F2"/>
<path d="M156.558 510.044C156.558 510.704 157.088 511.234 157.748 511.234H695.038C695.698 511.234 696.228 510.704 696.228 510.044C696.228 509.384 695.698 508.854 695.038 508.854H157.748C157.088 508.854 156.558 509.384 156.558 510.044H156.558Z" fill="#CCCCCC"/>
<path d="M340.704 347.64C339.874 347.64 339.204 348.203 339.204 348.9V364.919C336.004 369.396 335.944 373.84 339.204 378.233H339.374V392.101H339.204V409.01C339.204 409.708 339.874 410.27 340.704 410.27C341.534 410.27 342.204 409.708 342.204 409.01V348.9C342.204 348.203 341.534 347.64 340.704 347.64V347.64Z" fill="#F2F2F2"/>
<path d="M275.704 347.64C274.874 347.64 274.204 348.203 274.204 348.9V364.919C271.004 369.396 270.944 373.84 274.204 378.233H274.374V392.101H274.204V409.01C274.204 409.708 274.874 410.27 275.704 410.27C276.534 410.27 277.204 409.708 277.204 409.01V348.9C277.204 348.203 276.534 347.64 275.704 347.64V347.64Z" fill="#F2F2F2"/>
<path d="M396.374 371.36V383.16C341.867 405.051 264.846 401.899 222.374 383.16V371.33C223.129 371.37 246.873 386.4 247.628 386.44H247.639C250.073 386.55 252.496 386.66 254.919 386.76C256.586 386.83 258.243 386.91 259.888 386.97C261.916 387.06 263.945 387.14 265.962 387.22H265.973C266.875 387.26 267.754 387.29 268.655 387.33C277.197 387.66 285.614 387.94 293.897 388.16C300.996 388.36 307.983 388.51 314.857 388.6C318.586 388.66 322.294 388.69 325.956 388.72C329.416 388.73 332.847 388.531 336.233 388.73C366.473 390.508 396.123 373.741 396.374 371.36H396.374Z" fill="#F2F2F2"/>
<path d="M314.81 349.234C314.323 349.7 313.848 350.277 313.374 351.011V410.64H299.659L299.717 410.278L301.606 398.751L302.487 393.373L303.74 385.734L304.59 380.535L309.132 352.819C308.608 350.532 308.116 348.751 307.651 347.382L314.81 349.234H314.81Z" fill="#F2F2F2"/>
<path d="M345.578 317.791C344.965 318.423 344.16 319.042 343.193 319.65L343.179 319.658C343.242 318.973 343.248 318.279 343.193 317.581C342.554 309.124 333.644 300.286 324.816 303.87C319.903 304.716 315.271 310.806 313.696 305.298C310.085 297.691 306.295 305.589 301.105 305.477C290.025 306.81 282.427 308.945 277.698 312.001C274.507 314.059 272.619 316.543 271.849 319.487C270.654 324.109 272.198 329.859 275.773 336.898C276.386 336.437 277.192 335.985 278.154 335.547C278.666 335.313 279.228 335.084 279.827 334.858C278.462 337.682 277.965 340.955 278.154 344.277C278.794 355.869 287.707 367.977 296.531 363.064C301.445 361.905 306.076 353.563 307.651 361.114C307.776 361.469 307.897 361.807 308.027 362.113C308.027 362.12 308.031 362.12 308.031 362.126C309.875 366.695 311.777 366.057 313.898 364.444C313.898 364.444 313.902 364.444 313.902 364.438C315.804 363.003 317.876 360.801 320.243 360.868C331.322 359.04 338.92 356.115 343.65 351.925C346.84 349.098 348.729 345.693 349.498 341.657C350.693 335.327 349.149 327.439 345.578 317.791V317.791Z" fill="#F2F2F2"/>
<path d="M258.254 272.96C257.164 274 256.104 275.29 255.044 276.93V410.19H224.394L224.524 409.38L228.744 383.62L230.714 371.6L233.514 354.53L235.414 342.91L245.564 280.97C244.394 275.86 243.294 271.88 242.254 268.82L258.254 272.96V272.96Z" fill="#3F3D56"/>
<path d="M327.014 199.19C325.054 195.32 322.814 191.281 320.334 187.06C331.404 190.8 332.464 195.12 327.014 199.19Z" fill="#31BBED"/>
<path d="M171.014 245.391C172.964 249.261 175.204 253.3 177.684 257.521C166.614 253.781 165.554 249.461 171.014 245.391Z" fill="#31BBED"/>
<path d="M327.014 202.69C325.644 204.102 323.844 205.487 321.684 206.844L321.651 206.864C321.792 205.332 321.805 203.78 321.684 202.22C320.254 183.32 300.344 163.57 280.614 171.58C269.634 173.47 259.284 187.08 255.764 174.77C247.694 157.77 239.224 175.42 227.624 175.17C202.864 178.15 185.884 182.92 175.314 189.75C168.184 194.35 163.964 199.9 162.244 206.48C159.574 216.81 163.024 229.66 171.014 245.39C172.384 244.36 174.184 243.35 176.334 242.37C177.478 241.848 178.735 241.336 180.074 240.832C177.022 247.142 175.912 254.458 176.334 261.88C177.764 287.788 197.684 314.846 217.404 303.867C228.384 301.276 238.734 282.633 242.254 299.508C242.534 300.303 242.804 301.057 243.094 301.742C243.094 301.756 243.104 301.756 243.104 301.769C247.224 311.981 251.474 310.556 256.214 306.951C256.214 306.951 256.224 306.951 256.224 306.937C260.474 303.73 265.104 298.808 270.394 298.959C295.154 294.874 312.134 288.336 322.704 278.974C329.834 272.654 334.054 265.047 335.774 256.027C338.444 241.881 334.994 224.253 327.014 202.69V202.69Z" fill="#31BBED"/>
<path d="M346.055 402.187C347.409 401.492 348.611 398.68 346.883 400.206C346.795 400.284 346.834 400.01 346.805 399.895L346.836 399.82C347.888 397.312 351.453 397.329 352.496 399.841C353.422 402.071 354.6 404.304 354.89 406.662C355.021 407.702 354.962 408.762 354.731 409.783C356.9 405.045 358.042 399.871 358.042 394.668C358.042 393.361 357.97 392.054 357.824 390.75C357.703 389.683 357.538 388.623 357.323 387.572C356.162 381.894 353.648 376.486 350.022 371.969C348.279 371.017 346.826 369.527 345.947 367.742C345.632 367.098 345.385 366.405 345.268 365.7C345.466 365.726 346.016 362.705 345.866 362.519C346.143 362.1 346.637 361.891 346.939 361.482C348.441 359.446 350.51 359.801 351.59 362.568C353.897 363.732 353.919 365.663 352.503 367.521C351.603 368.702 351.479 370.301 350.689 371.566C350.77 371.67 350.855 371.771 350.936 371.875C352.427 373.787 353.716 375.843 354.803 378.002C354.496 375.602 354.95 372.711 355.723 370.847C356.603 368.724 358.253 366.936 359.706 365.1C361.451 362.895 365.029 363.857 365.337 366.653L365.346 366.734C365.13 366.855 364.918 366.985 364.712 367.121C363.534 367.9 363.941 369.726 365.337 369.942L365.368 369.947C365.29 370.724 365.157 371.495 364.962 372.252C366.826 379.46 362.802 382.085 357.056 382.203C356.929 382.268 356.806 382.333 356.679 382.395C357.261 384.034 357.726 385.716 358.071 387.42C358.38 388.925 358.594 390.447 358.715 391.976C358.864 393.904 358.851 395.842 358.689 397.767L358.699 397.699C359.111 395.579 360.263 393.598 361.934 392.226C364.424 390.181 367.942 389.427 370.629 387.783C371.922 386.992 373.579 388.014 373.353 389.514L373.342 389.585C372.942 389.748 372.552 389.937 372.175 390.148C371.959 390.27 371.748 390.399 371.541 390.536C370.363 391.315 370.77 393.141 372.166 393.356L372.198 393.361L372.263 393.371C371.576 395 370.62 396.512 369.424 397.816C368.258 404.108 363.253 404.705 357.899 402.873H357.895C357.31 405.423 356.455 407.914 355.355 410.288H346.282C346.25 410.187 346.221 410.083 346.191 409.982C347.03 410.034 347.876 409.985 348.702 409.832C348.029 409.006 347.356 408.174 346.682 407.348C346.666 407.332 346.653 407.315 346.64 407.299C346.299 406.876 345.954 406.457 345.613 406.034L345.612 406.033C345.591 404.736 345.747 403.442 346.055 402.187L346.055 402.187V402.187Z" fill="#3F3D56"/>
<path d="M393.604 372.15C392.114 372.06 390.624 371.96 389.134 371.88C386.884 371.74 384.644 371.61 382.414 371.48C380.654 371.38 378.904 371.29 377.164 371.19V336.27C377.164 335.44 376.494 334.77 375.664 334.77C374.834 334.77 374.164 335.44 374.164 336.27V355.34C370.964 360.67 370.904 365.96 374.164 371.19C358.964 372.99 341.814 373.88 323.254 374.13H323.124C320.454 374.16 317.744 374.18 315.014 374.19C312.004 374.2 308.964 374.19 305.894 374.18C302.644 374.15 299.354 374.12 296.044 374.06C289.944 373.97 283.744 373.82 277.444 373.62C270.094 373.4 262.624 373.12 255.044 372.79C254.244 372.75 253.464 372.72 252.664 372.68H252.654C250.864 372.6 249.064 372.52 247.264 372.43C245.804 372.37 244.334 372.29 242.854 372.22C240.704 372.12 238.554 372.01 236.394 371.9H236.384C234.494 371.8 232.614 371.7 230.724 371.6H230.714C228.264 371.47 225.804 371.33 223.334 371.19C225.134 366.49 224.804 361.1 223.334 355.34V336.27C223.334 335.44 222.674 334.77 221.834 334.77C221.014 334.77 220.334 335.44 220.334 336.27V343.22C217.854 344.04 216.054 346.37 216.054 349.13C216.054 351.89 217.854 354.22 220.334 355.03V371.5C217.854 372.32 216.054 374.65 216.054 377.41C216.054 380.17 217.854 382.5 220.334 383.31V407.83C220.334 408.66 221.014 409.33 221.834 409.33C222.674 409.33 223.334 408.66 223.334 407.83V383.62H374.164V407.83C374.164 408.66 374.834 409.33 375.664 409.33C376.494 409.33 377.164 408.66 377.164 407.83V383.62H395.984V372.3C395.184 372.25 394.394 372.2 393.604 372.15L393.604 372.15Z" fill="#E6E6E6"/>
<path d="M395.979 409.38V410.4H203.923C203.64 410.4 203.413 410.173 203.413 409.89C203.413 409.607 203.64 409.38 203.923 409.38H395.979V409.38Z" fill="#CCCCCC"/>
</g>
<defs>
<clipPath id="clip0_3_48">
<rect width="696.228" height="511.234" fill="white"/>
</clipPath>
</defs>
</svg>
